<svg width="93" height="56" viewBox="0 0 93 56" fill="none" xmlns="http://www.w3.org/2000/svg">
<path fill-rule="evenodd" clip-rule="evenodd" d="M65.0293 27.1392C65.2471 28.5623 65.762 29.7853 66.5938 30.7859C67.4057 31.7865 68.5147 32.5647 69.901 33.1206C71.2873 33.6765 72.931 33.9656 74.8322 33.9656C76.5551 33.9656 78.1592 33.6765 79.6643 33.0762C81.1694 32.4758 82.3181 31.5641 83.1102 30.2967C83.9024 29.0293 84.2984 27.6284 84.2984 26.0719C84.2984 24.3375 83.8033 22.8255 82.833 21.5803C81.8428 20.3129 80.4169 19.4679 78.5355 19.0454L73.644 17.9336C72.5943 17.689 72.0596 17.1332 72.0596 16.3104C72.0596 15.8212 72.2577 15.3765 72.634 15.0208C73.03 14.665 73.6242 14.4871 74.4163 14.4871C75.3867 14.4871 76.1788 14.7539 76.8126 15.3098C77.4265 15.8435 77.8028 16.4883 77.9216 17.2443L83.9816 15.888C83.5657 13.8423 82.5161 12.1968 80.8526 10.9961C79.1692 9.77313 77.07 9.17276 74.5153 9.17276C71.8616 9.17276 69.703 9.90654 68.0395 11.3741C66.3759 12.8417 65.5442 14.7539 65.5442 17.1109C65.5442 18.912 66.0789 20.4018 67.1483 21.5581C68.2177 22.7143 69.703 23.5148 71.6042 23.915L75.8422 24.8489C77.2285 25.138 77.9216 25.6939 77.9216 26.5833C77.9216 27.117 77.6839 27.5617 77.1889 27.9175C76.7136 28.2733 76.0402 28.4511 75.2085 28.4511C74.2381 28.4511 73.4261 28.2288 72.733 27.7841C72.0596 27.3394 71.6438 26.65 71.5051 25.7161L65.0293 27.1392ZM10.6478 0.100586H82.4369C87.8037 0.100586 92.1804 5.01468 92.1804 11.0406V32.0533C92.1804 38.0792 87.8037 42.9933 82.4369 42.9933H47.8197L33.6005 55.2452V21.7804C33.6005 19.8904 33.957 18.4228 34.6897 17.4C35.4027 16.3771 36.3731 15.8657 37.6009 15.8657C38.5911 15.8657 39.4426 16.266 40.116 17.0887C40.7893 17.8892 41.126 18.9342 41.126 20.2017V33.2541H47.7603V21.7804C47.7603 20.8688 47.8791 19.9571 48.1366 19.001C48.394 18.0448 48.8297 17.2888 49.4832 16.7107C50.1367 16.1325 50.9091 15.8435 51.8201 15.8435C52.7905 15.8435 53.6024 16.2437 54.2956 17.0664C54.9689 17.8669 55.3056 18.912 55.3056 20.1794V33.2318H61.9003V18.6229C61.9003 17.2666 61.7022 15.9769 61.3061 14.7984C60.9101 13.6199 60.3357 12.5971 59.603 11.7743C58.8703 10.9294 58.0187 10.2845 57.0285 9.83983C56.0383 9.39512 55.0085 9.17276 53.9391 9.17276C52.3944 9.17276 50.9883 9.52853 49.7209 10.2178C48.4534 10.9071 47.4038 11.8855 46.5522 13.1307C45.8591 11.8855 44.9085 10.9071 43.7005 10.2178C42.4924 9.52853 41.1656 9.17276 39.7397 9.17276C37.1652 9.17276 35.1254 10.1289 33.6005 12.0189V9.88431H26.9662V43.0155H10.6478C5.28096 43.0155 0.904297 38.0792 0.904297 32.0756V11.0406C0.904297 5.01468 5.28096 0.100586 10.6478 0.100586ZM22.6292 9.52853C21.8568 9.52853 21.0052 9.68418 20.0943 9.97325C19.1833 10.2623 18.3317 10.796 17.5198 11.5742C16.7078 12.3525 16.0345 13.2641 15.4403 14.3315V9.86207H8.80605V33.2541H15.4403V25.9385C15.4403 20.0905 17.8366 17.1776 22.6292 17.1776H23.8372L24.1343 9.72865C23.6788 9.59524 23.1837 9.52853 22.6292 9.52853Z" fill="#89C400"/>
<path fill-rule="evenodd" clip-rule="evenodd" d="M90.9132 46.5732C90.7151 46.5732 90.5171 46.6176 90.3586 46.6844C90.1804 46.7733 90.0418 46.8845 89.923 47.0179V46.6621H88.8734V50.3532H89.923V48.6411C89.923 48.3076 89.9824 48.0407 90.1012 47.8628C90.22 47.685 90.3784 47.596 90.5963 47.596C90.7151 47.596 90.8339 47.6405 90.9132 47.7072C91.0122 47.7961 91.0716 47.8851 91.1112 47.9963C91.1508 48.1074 91.1706 48.2186 91.1706 48.3298V50.331H92.2004V48.063C92.2004 47.8406 92.1608 47.6405 92.1014 47.4404C92.042 47.2402 91.9628 47.0846 91.8439 46.9512C91.7251 46.8178 91.5865 46.7066 91.4479 46.6399C91.2696 46.5954 91.1112 46.5732 90.9132 46.5732ZM86.5167 49.4638C86.4177 49.4638 86.2988 49.4416 86.18 49.3749C86.0612 49.3082 85.9424 49.2192 85.8434 49.0636C85.7443 48.9079 85.7047 48.73 85.7047 48.5299C85.7047 48.352 85.7443 48.1964 85.8235 48.0407C85.9028 47.8851 86.0018 47.7739 86.1404 47.685C86.279 47.596 86.3979 47.5738 86.5365 47.5738C86.7543 47.5738 86.9326 47.6627 87.091 47.8406C87.2494 48.0185 87.3286 48.2409 87.3286 48.5299C87.3286 48.73 87.289 48.9079 87.19 49.0636C87.091 49.2192 86.992 49.3304 86.8732 49.3749C86.7345 49.4416 86.6157 49.4638 86.5167 49.4638ZM86.5167 46.5732C86.279 46.5732 86.0414 46.6176 85.8235 46.7066C85.6057 46.7955 85.4077 46.9289 85.2294 47.1068C85.071 47.2847 84.9324 47.4848 84.8334 47.7294C84.7343 47.974 84.6947 48.2186 84.6947 48.5077C84.6947 48.7967 84.7541 49.0636 84.8532 49.3304C84.9522 49.5972 85.1106 49.8196 85.3284 49.9975C85.5265 50.1754 85.7443 50.2865 85.9424 50.3532C86.1404 50.42 86.3384 50.4422 86.5167 50.4422C86.7543 50.4422 86.992 50.3977 87.2098 50.3088C87.4277 50.2198 87.6257 50.0864 87.7841 49.9085C87.9426 49.7306 88.0812 49.5305 88.1802 49.2859C88.2792 49.0413 88.3188 48.7745 88.3188 48.5077C88.3188 48.2186 88.2594 47.9518 88.1604 47.685C88.0614 47.4181 87.903 47.1958 87.6851 47.0179C87.4871 46.84 87.2692 46.7288 87.0712 46.6621C86.893 46.6176 86.6949 46.5732 86.5167 46.5732ZM84.1204 50.3532V46.6621H83.0708V50.3532H84.1204ZM83.5857 44.9277C83.4075 44.9277 83.2688 44.9944 83.15 45.1279C83.0312 45.2613 82.9718 45.4169 82.9718 45.5948C82.9718 45.7282 83.0114 45.8616 83.0708 45.9506C83.1302 46.0618 83.2094 46.1285 83.3085 46.1729C83.4075 46.2174 83.4867 46.2396 83.5659 46.2396C83.7441 46.2396 83.8828 46.1729 84.0016 46.0618C84.1204 45.9283 84.1798 45.7727 84.1798 45.5948C84.1798 45.4614 84.1402 45.3502 84.0808 45.2168C84.0214 45.1056 83.9422 45.0167 83.8432 44.9722C83.7639 44.95 83.6649 44.9277 83.5857 44.9277ZM82.3777 49.2859C82.3183 49.3304 82.239 49.3526 82.14 49.3971C82.041 49.4193 81.9618 49.4416 81.9024 49.4416C81.6053 49.4416 81.4667 49.2637 81.4667 48.9079V47.6405H82.4371V46.7066H81.4667V45.617H80.4171V46.7066H79.823V47.6405H80.4171V49.0413C80.4171 49.5083 80.5359 49.8863 80.7538 50.1309C80.9914 50.3755 81.3083 50.5089 81.7241 50.5089C82.0212 50.5089 82.3183 50.42 82.6153 50.2421L82.3777 49.2859ZM77.8426 49.5972C77.704 49.5972 77.6049 49.5528 77.5059 49.4861C77.4267 49.4193 77.3871 49.3304 77.3871 49.2192C77.3871 49.108 77.4267 49.0191 77.5059 48.9524C77.5851 48.8857 77.6842 48.8412 77.803 48.8412H78.5159V48.9302C78.5159 49.0858 78.4763 49.197 78.4169 49.3082C78.3377 49.4193 78.2585 49.4861 78.1594 49.5305C78.0604 49.575 77.9614 49.5972 77.8426 49.5972ZM78.0208 46.5732C77.7238 46.5732 77.4861 46.6176 77.2683 46.7288C77.0504 46.84 76.892 46.9734 76.7732 47.1513C76.6544 47.307 76.5751 47.5071 76.5157 47.7294L77.5059 47.9518C77.5455 47.6405 77.7436 47.4848 78.0604 47.4848C78.1991 47.4848 78.2981 47.5293 78.3971 47.6183C78.4763 47.7072 78.5357 47.8406 78.5357 47.9963V48.063H77.704C77.2683 48.063 76.9316 48.1741 76.694 48.3965C76.4563 48.6189 76.3375 48.9079 76.3375 49.2637C76.3375 49.6195 76.4563 49.9085 76.6742 50.1309C76.892 50.3532 77.1891 50.4644 77.5653 50.4644C77.9614 50.4644 78.2783 50.331 78.5357 50.0864V50.3532H79.5457V48.0185C79.5457 47.7961 79.5061 47.5738 79.4467 47.3959C79.3873 47.218 79.2685 47.0624 79.1496 46.9289C79.011 46.7955 78.8526 46.7066 78.6744 46.6399C78.4565 46.5954 78.2585 46.5732 78.0208 46.5732ZM76.0206 49.2859C75.9612 49.3304 75.882 49.3526 75.783 49.3971C75.684 49.4193 75.6047 49.4416 75.5453 49.4416C75.2483 49.4416 75.1096 49.2637 75.1096 48.9079V47.6405H76.08V46.7066H75.1096V45.617H74.06V46.7066H73.4659V47.6405H74.06V49.0413C74.06 49.5083 74.1789 49.8863 74.3967 50.1309C74.6344 50.3755 74.9512 50.5089 75.3671 50.5089C75.6642 50.5089 75.9612 50.42 76.2583 50.2421L76.0206 49.2859ZM70.2379 49.3971C70.2775 49.6195 70.3567 49.8196 70.4755 49.9752C70.6142 50.1309 70.7726 50.2643 70.9904 50.3532C71.2083 50.4422 71.4657 50.4867 71.7628 50.4867C72.04 50.4867 72.2777 50.4422 72.5153 50.3532C72.753 50.2643 72.9312 50.1087 73.05 49.9085C73.1689 49.7084 73.2283 49.4861 73.2283 49.2415C73.2283 48.9746 73.1491 48.73 72.9906 48.5299C72.8322 48.3298 72.6144 48.1964 72.3173 48.1297L71.545 47.9518C71.3865 47.9073 71.2875 47.8184 71.2875 47.685C71.2875 47.6183 71.3271 47.5293 71.3865 47.4848C71.4459 47.4181 71.5449 47.3959 71.6638 47.3959C71.8222 47.3959 71.941 47.4404 72.04 47.5293C72.1391 47.6183 72.1985 47.7072 72.2183 47.8406L73.1689 47.6183C73.1095 47.307 72.9312 47.0401 72.6738 46.84C72.4163 46.6399 72.0797 46.5509 71.6836 46.5509C71.2677 46.5509 70.931 46.6621 70.6736 46.9067C70.4161 47.1291 70.2775 47.4404 70.2775 47.8184C70.2775 48.1074 70.3567 48.3298 70.535 48.5077C70.6934 48.6856 70.931 48.819 71.2281 48.8857L71.9014 49.0413C72.1193 49.0858 72.2381 49.1748 72.2381 49.3082C72.2381 49.3971 72.1985 49.4638 72.1193 49.5083C72.04 49.575 71.941 49.5972 71.8024 49.5972C71.644 49.5972 71.5251 49.5528 71.4063 49.4861C71.3073 49.4193 71.2281 49.3082 71.2083 49.1525L70.2379 49.3971ZM70.1191 46.6621H68.9902L68.1585 48.819L67.3861 46.6621H66.2573L67.6238 50.2198L67.0891 51.5984H68.2179L70.1191 46.6621ZM64.7324 46.5732C64.4948 46.5732 64.2769 46.6176 64.0789 46.7288C63.8808 46.84 63.7224 46.9957 63.5838 47.1958C63.465 46.9957 63.3263 46.84 63.1283 46.7288C62.9303 46.6176 62.7322 46.5732 62.5144 46.5732C62.1183 46.5732 61.7816 46.7288 61.544 47.0179V46.6844H60.4944V50.3532H61.544V48.5522C61.544 48.2631 61.6034 48.0185 61.7222 47.8628C61.841 47.7072 61.9797 47.6183 62.1777 47.6183C62.3361 47.6183 62.4748 47.685 62.5738 47.8184C62.6728 47.9518 62.7322 48.1074 62.7322 48.3076V50.3532H63.7818V48.5522C63.7818 48.4187 63.8016 48.2631 63.8412 48.1074C63.8808 47.9518 63.9601 47.8406 64.0591 47.7517C64.1581 47.6627 64.2769 47.6183 64.4354 47.6183C64.5938 47.6183 64.7126 47.685 64.8314 47.8184C64.9304 47.9518 64.9899 48.1074 64.9899 48.3076V50.3532H66.0197V48.0407C66.0197 47.8184 65.9801 47.6183 65.9206 47.4404C65.8612 47.2625 65.7622 47.0846 65.6434 46.9734C65.5246 46.84 65.3859 46.7511 65.2473 46.6621C65.0691 46.5954 64.8908 46.5732 64.7324 46.5732ZM58.2565 47.5293C58.415 47.5293 58.5536 47.5738 58.6724 47.685C58.7912 47.7961 58.8705 47.9296 58.9299 48.1074H57.5832C57.6228 47.9296 57.7218 47.7961 57.8605 47.685C57.9595 47.5738 58.0981 47.5293 58.2565 47.5293ZM59.9399 48.5299C59.9399 48.2409 59.8805 47.974 59.8012 47.7294C59.7022 47.4848 59.5834 47.2847 59.4448 47.1068C59.2863 46.9289 59.1081 46.7955 58.9101 46.7066C58.712 46.6176 58.4942 46.5732 58.2565 46.5732C58.0189 46.5732 57.8011 46.6176 57.5832 46.7066C57.3654 46.7955 57.1871 46.9289 57.0287 47.1068C56.8703 47.2847 56.7514 47.4848 56.6524 47.7294C56.5534 47.974 56.5138 48.2409 56.5138 48.5077C56.5138 48.7967 56.5534 49.0413 56.6524 49.2859C56.7316 49.5305 56.8703 49.7306 57.0287 49.9085C57.1871 50.0864 57.3852 50.2198 57.5832 50.3088C57.8011 50.3977 58.0189 50.4422 58.2367 50.4422C58.514 50.4422 58.7714 50.3977 58.9695 50.2865C59.1873 50.1976 59.3656 50.0642 59.5042 49.8863C59.6428 49.7084 59.7616 49.5083 59.8607 49.2859L58.9299 49.0636C58.7912 49.3526 58.5536 49.4861 58.2367 49.4861C58.0585 49.4861 57.9199 49.4193 57.7812 49.2859C57.6624 49.1525 57.5634 48.9746 57.5238 48.7745H59.9201V48.5299H59.9399ZM56.1771 49.2859C56.1177 49.3304 56.0385 49.3526 55.9395 49.3971C55.8405 49.4193 55.7613 49.4416 55.7018 49.4416C55.4048 49.4416 55.2662 49.2637 55.2662 48.9079V47.6405H56.2365V46.7066H55.2662V45.617H54.2166V46.7066H53.6224V47.6405H54.2166V49.0413C54.2166 49.5083 54.3354 49.8863 54.5532 50.1309C54.7909 50.3755 55.1077 50.5089 55.5236 50.5089C55.8207 50.5089 56.1177 50.42 56.4148 50.2421L56.1771 49.2859ZM51.642 49.5972C51.5034 49.5972 51.4044 49.5528 51.3054 49.4861C51.2262 49.4193 51.1866 49.3304 51.1866 49.2192C51.1866 49.108 51.2262 49.0191 51.3054 48.9524C51.3846 48.8857 51.4836 48.8412 51.6024 48.8412H52.3154V48.9302C52.3154 49.0858 52.2758 49.197 52.2164 49.3082C52.1371 49.4193 52.0579 49.4861 51.9589 49.5305C51.8599 49.575 51.7609 49.5972 51.642 49.5972ZM51.8401 46.5732C51.543 46.5732 51.3054 46.6176 51.0875 46.7288C50.8697 46.84 50.7113 46.9734 50.5924 47.1513C50.4736 47.307 50.3746 47.5071 50.335 47.7294L51.3252 47.9518C51.3648 47.6405 51.5628 47.4848 51.8797 47.4848C52.0183 47.4848 52.1173 47.5293 52.2164 47.6183C52.2956 47.7072 52.355 47.8406 52.355 47.9963V48.063H51.5232C51.0875 48.063 50.7509 48.1741 50.5132 48.3965C50.2756 48.6189 50.1568 48.9079 50.1568 49.2637C50.1568 49.6195 50.2756 49.9085 50.4934 50.1309C50.7113 50.3532 51.0083 50.4644 51.3846 50.4644C51.7807 50.4644 52.0975 50.331 52.355 50.0864V50.3532H53.365V48.0185C53.365 47.7961 53.3254 47.5738 53.266 47.3959C53.1867 47.218 53.0877 47.0624 52.9689 46.9289C52.8303 46.7955 52.6718 46.7066 52.4936 46.6399C52.2758 46.5954 52.0579 46.5732 51.8401 46.5732ZM49.7607 46.6176C49.6418 46.6176 49.5032 46.6399 49.3646 46.6844C49.226 46.7288 49.0873 46.8178 48.9685 46.9289C48.8497 47.0624 48.7309 47.1958 48.6517 47.3514V46.6399H47.6021V50.3532H48.6517V49.197C48.6517 48.2853 49.0279 47.8184 49.7805 47.8184H49.9785L50.0181 46.6399C49.9389 46.6399 49.8597 46.6176 49.7607 46.6176Z" fill="#194D79"/>
</svg>
