<svg width="20" height="21" viewBox="0 0 20 21" fill="none" xmlns="http://www.w3.org/2000/svg">
<path d="M20 10.4955C19.9546 15.3321 16.418 19.5273 11.6779 20.3163C9.32767 20.708 7.11941 20.3163 5.03603 19.1639C4.95088 19.1185 4.82031 19.1072 4.72949 19.1412C3.56575 19.5556 2.40201 19.9871 1.23827 20.4015C0.647888 20.6115 0.0688572 20.2596 0.0120895 19.6465C-0.0049408 19.4875 0.0404734 19.3059 0.0972411 19.1526C0.500292 18.0229 0.914696 16.8932 1.3291 15.7636C1.37451 15.633 1.38019 15.5365 1.30639 15.4116C-1.84421 9.84837 0.948757 2.84323 7.05696 0.958544C12.6656 -0.772871 18.6205 2.76943 19.7445 8.52C19.8751 9.17283 19.9205 9.83701 20 10.4955Z" fill="#828282"/>
</svg>
