<svg width="19" height="21" viewBox="0 0 19 21" fill="none" xmlns="http://www.w3.org/2000/svg">
<path d="M14.8549 21.0031C14.5362 20.911 14.2059 20.851 13.9025 20.715C12.4738 20.0748 11.698 18.5344 11.9861 16.926C12.0091 16.7979 11.9746 16.7499 11.8824 16.6939C9.97751 15.5656 8.07263 14.4373 6.16775 13.301C6.0487 13.229 5.97573 13.237 5.87203 13.333C4.87351 14.2453 3.45253 14.4293 2.26966 13.8131C1.07911 13.193 0.341739 11.8806 0.460794 10.5083C0.579849 9.13588 1.25961 8.13562 2.48089 7.61148C3.70216 7.08734 4.85047 7.30339 5.87203 8.18363C5.95652 8.25565 6.01413 8.31166 6.13319 8.23964C8.08415 7.07533 10.039 5.91502 11.9784 4.76271C11.9592 4.41862 11.9208 4.09053 11.9323 3.75845C11.9784 2.16602 13.192 0.773647 14.7051 0.557589C14.7551 0.549587 14.8012 0.533582 14.8511 0.517578C15.0815 0.517578 15.3119 0.517578 15.5424 0.517578C15.5769 0.529581 15.6153 0.545586 15.6499 0.553588C17.0517 0.765645 18.1808 1.88594 18.4189 3.30232C18.6685 4.78672 18.0003 6.23511 16.7406 6.9433C15.4886 7.64349 13.9562 7.41942 12.9232 6.38715C12.8771 6.34314 12.831 6.29913 12.7811 6.25111C10.8032 7.42743 8.83305 8.59574 6.85904 9.76805C7.04722 10.4402 7.03954 11.1004 6.86288 11.7566C8.84457 12.9329 10.8147 14.1012 12.8156 15.2895C12.8617 15.2255 12.8924 15.1655 12.9385 15.1215C13.7143 14.3733 14.6283 14.0612 15.6729 14.2132C17.1707 14.4293 18.3805 15.7777 18.4611 17.3021C18.5533 19.0185 17.5701 20.4709 16.0263 20.891C15.865 20.935 15.7037 20.967 15.5424 21.0071C15.3158 21.0031 15.0854 21.0031 14.8549 21.0031Z" fill="#828282"/>
</svg>
