<svg width="19" height="18" viewBox="0 0 19 18" fill="none" xmlns="http://www.w3.org/2000/svg">
<path d="M18.9849 9.4106C18.8935 10.9767 18.4897 12.3833 17.7782 13.5917C17.0618 14.8098 16.0234 15.8394 14.7014 16.6417C13.2206 17.5408 11.6726 18 10.1102 18C8.83139 18 7.51894 17.6906 6.2113 17.0864C4.99019 16.5209 3.93735 15.6412 3.07681 14.4618C2.76432 14.0316 2.82682 13.5047 3.22584 13.2099C3.62486 12.9102 4.14407 13.0068 4.46137 13.4274C5.59113 14.9403 7.08146 15.8539 8.88428 16.1342C12.2976 16.6659 15.5427 14.8098 16.7734 11.6147C18.0666 8.26019 16.7494 4.51411 13.6437 2.69666C10.7929 1.03872 6.9757 1.63809 4.76424 4.10808C3.99985 4.96364 3.4566 5.94004 3.15373 7.02278C3.46141 6.90194 3.81235 6.96961 4.05754 7.21129C4.2258 7.37563 4.31714 7.58831 4.31714 7.8155C4.31714 8.05234 4.22099 8.27953 4.04312 8.46321C3.65851 8.85473 3.14892 9.3671 2.6249 9.8843C2.42779 10.0825 2.1778 10.1743 1.923 10.1501C1.67301 10.126 1.45187 9.99064 1.29803 9.76346C0.999962 9.3236 0.701896 8.87407 0.418253 8.44387C0.326911 8.30369 0.23076 8.15868 0.139418 8.01851C0.105765 7.97017 0.0817277 7.92184 0.0576901 7.87833C0.0480751 7.86383 0.0384601 7.8445 0.0288451 7.83L0 7.76233V7.3273L0.0336526 7.26446C0.312488 6.73276 0.745164 6.53941 1.19226 6.74726C1.27399 6.78593 1.3461 6.8391 1.4086 6.8971C2.27395 3.54738 4.38926 1.34807 7.69201 0.352337C9.3458 -0.145529 11.1198 -0.116527 12.8216 0.444177C14.5139 1.00005 15.9754 2.01995 17.0522 3.39754C18.4608 5.19566 19.1098 7.22096 18.9849 9.4106ZM10.6534 4.12259C10.6534 3.59088 10.2929 3.20419 9.7929 3.19936H9.78809C9.55733 3.19936 9.3458 3.28636 9.18715 3.44104C9.01889 3.61022 8.92274 3.84707 8.92274 4.11292C8.92274 4.77996 8.92274 5.44701 8.92274 6.11405V6.28323C8.92274 7.26446 8.92274 8.25052 8.92274 9.23176C8.92274 9.57011 9.06215 9.84563 9.33618 10.0486C9.81693 10.4015 10.2977 10.7689 10.7688 11.1217C10.9419 11.2522 11.1198 11.3876 11.2928 11.5181C11.4419 11.6292 11.5909 11.7453 11.7447 11.8564C12.062 12.0933 12.3745 12.335 12.6918 12.567C12.8553 12.6926 13.0332 12.7507 13.2158 12.7507C13.3697 12.7507 13.5235 12.7072 13.6677 12.6153C13.9706 12.4316 14.1197 12.1078 14.0668 11.7404C14.0235 11.4359 13.8264 11.2474 13.6533 11.1169C13.288 10.8414 12.9226 10.5658 12.562 10.2855L12.437 10.1937C11.8457 9.74412 11.2592 9.29943 10.6679 8.8499C10.6582 8.84023 10.6534 8.8354 10.6486 8.8354C10.6486 8.83056 10.6486 8.82573 10.6486 8.81606C10.6534 8.23119 10.6534 7.63182 10.6534 7.05661C10.6534 6.86327 10.6534 6.66992 10.6534 6.47174V5.75636C10.6534 5.21499 10.6534 4.66879 10.6534 4.12259Z" fill="#194D79"/>
</svg>
