<svg width="20" height="20" viewBox="0 0 20 20" fill="none" xmlns="http://www.w3.org/2000/svg">
<path d="M18.6096 1.00117C17.7615 0.153065 16.3864 0.153067 15.5383 1.00118L9.80205 6.73745L4.06495 1.00034C3.21684 0.152231 1.84178 0.152231 0.993674 1.00034C0.145565 1.84845 0.145567 3.2235 0.993675 4.07161L6.73078 9.80872L0.993504 15.546C0.145395 16.3941 0.145395 17.7692 0.993503 18.6173C1.84161 19.4654 3.21667 19.4654 4.06478 18.6173L9.80205 12.88L15.5385 18.6164C16.3866 19.4645 17.7617 19.4645 18.6098 18.6164C19.4579 17.7683 19.4579 16.3933 18.6098 15.5452L12.8733 9.80872L18.6096 4.07245C19.4577 3.22434 19.4577 1.84928 18.6096 1.00117Z" fill="#BDBDBD"/>
</svg>
