<svg width="19" height="19" viewBox="0 0 19 19" fill="none" xmlns="http://www.w3.org/2000/svg">
<path d="M18.2522 0.636916C17.4041 -0.211193 16.029 -0.211191 15.1809 0.636918L9.44463 6.37319L3.70752 0.636082C2.85942 -0.212027 1.48436 -0.212027 0.636252 0.636081C-0.211857 1.48419 -0.211855 2.85925 0.636254 3.70736L6.37336 9.44446L0.636082 15.1817C-0.212027 16.0298 -0.212027 17.4049 0.636081 18.253C1.48419 19.1011 2.85925 19.1011 3.70736 18.253L9.44463 12.5157L15.1811 18.2522C16.0292 19.1003 17.4042 19.1003 18.2523 18.2522C19.1005 17.4041 19.1005 16.029 18.2523 15.1809L12.5159 9.44446L18.2522 3.70819C19.1003 2.86008 19.1003 1.48502 18.2522 0.636916Z" fill="#828282"/>
</svg>
