<svg width="25" height="17" viewBox="0 0 25 17" fill="none" xmlns="http://www.w3.org/2000/svg">
<path d="M0.396484 8.1779C0.653913 7.78608 0.879948 7.3677 1.16249 7.00244C2.70079 5.02343 4.50279 3.36983 6.68152 2.20101C8.16958 1.40409 9.73299 0.89938 11.3969 0.733356C14.6241 0.407948 17.55 1.31776 20.2248 3.2038C21.964 4.43238 23.4081 5.97309 24.6701 7.71967C24.9841 8.15133 24.9841 8.6162 24.6701 9.04786C23.2135 11.0667 21.5119 12.8 19.4337 14.0884C17.7133 15.1576 15.8736 15.8349 13.877 16.0342C10.9762 16.3264 8.29516 15.6092 5.80249 14.0485C3.74306 12.7602 2.05408 11.0269 0.616241 9.0213C0.522059 8.88848 0.465551 8.7291 0.396484 8.583C0.396484 8.45018 0.396484 8.31736 0.396484 8.1779ZM12.4831 2.93816C9.68904 2.99129 7.4538 5.50822 7.49775 8.54315C7.5417 11.5117 9.92763 13.8825 12.8096 13.8227C15.5973 13.7696 17.8451 11.2394 17.7949 8.21774C17.751 5.24922 15.365 2.88503 12.4831 2.93816ZM9.8774 8.39705C9.8774 9.99088 11.1269 11.3124 12.6338 11.3124C14.1846 11.3124 15.4341 9.9776 15.4278 8.324C15.4215 6.75008 14.1658 5.44181 12.6589 5.44845C11.1332 5.44845 9.8774 6.77665 9.8774 8.39705Z" fill="#828282"/>
</svg>
