<svg width="20" height="20" viewBox="0 0 20 20" fill="none" xmlns="http://www.w3.org/2000/svg">
<path d="M0.00598441 19.4214C0.125673 18.9839 0.245361 18.5465 0.35308 18.109C0.646317 16.9525 0.927584 15.796 1.22082 14.6454C1.25074 14.5316 1.31657 14.4117 1.39437 14.3279C5.01494 10.6965 8.63551 7.07109 12.2561 3.4457C12.286 3.41574 12.3159 3.39177 12.3279 3.37979C13.7522 4.80597 15.1705 6.22616 16.6068 7.66433C16.5828 7.6943 16.5349 7.74224 16.4871 7.79617C12.9024 11.3856 9.31773 14.975 5.72708 18.5585C5.61936 18.6663 5.46377 18.7562 5.31416 18.7922C3.7642 19.1877 2.21423 19.5712 0.66427 19.9607C0.31119 20.0506 0.191501 19.9966 0 19.691C0.00598441 19.6011 0.00598441 19.5113 0.00598441 19.4214Z" fill="#828282"/>
<path d="M17.8874 6.39994C16.4512 4.96177 15.0328 3.54158 13.6265 2.13337C14.1531 1.59406 14.6618 1.0128 15.2303 0.503448C15.9844 -0.179683 17.2531 -0.161705 18.0131 0.521425C18.5277 0.98883 19.0245 1.48021 19.4853 2.00154C20.1854 2.78654 20.1615 4.00899 19.4733 4.79399C19.4075 4.87189 19.3297 4.9438 19.2578 5.0217C18.797 5.48311 18.3422 5.94452 17.8874 6.39994Z" fill="#828282"/>
</svg>
