<svg width="22" height="20" viewBox="0 0 22 20" fill="none" xmlns="http://www.w3.org/2000/svg">
<path d="M21.4757 9.62105C21.4757 9.83852 21.4757 10.0619 21.4757 10.2793C21.464 10.297 21.4463 10.3146 21.4405 10.3322C21.1113 11.8545 20.7822 13.3827 20.453 14.9049C20.2767 15.7278 20.1122 16.5565 19.9064 17.3735C19.5244 18.931 18.1138 19.9949 16.4505 20.0007C14.1641 20.0066 11.8777 20.0066 9.58552 20.0007C7.52251 20.0007 5.98848 18.455 5.9826 16.3978C5.9826 13.9939 5.9826 11.59 5.9826 9.18023C5.9826 8.22808 6.29998 7.40523 6.94063 6.69992C7.81051 5.73601 8.68038 4.7721 9.54437 3.80818C10.5083 2.73848 11.4722 1.67465 12.4244 0.604938C12.6653 0.334572 12.9357 0.234655 13.2884 0.334572C13.5646 0.41098 13.8408 0.475633 14.1171 0.546163C15.6217 0.928202 16.2565 2.37995 15.5101 3.73765C15.0575 4.54875 14.6049 5.36573 14.1582 6.17682C13.8115 6.80572 14.123 7.32882 14.84 7.32882C16.1918 7.32882 17.5378 7.31706 18.8896 7.33469C19.8359 7.34645 20.5882 7.76375 21.0761 8.58073C21.2641 8.89811 21.3464 9.27428 21.4757 9.62105ZM4.78359 18.167V8.62775C4.78359 7.61094 3.96073 6.78809 2.94392 6.78809H2.07993C1.06312 6.78809 0.240265 7.61094 0.240265 8.62775V18.167C0.240265 19.1838 1.06312 20.0066 2.07993 20.0066H2.94392C3.96073 20.0066 4.78359 19.1838 4.78359 18.167Z" fill="#828282"/>
</svg>
