<svg width="21" height="21" viewBox="0 0 21 21" fill="none" xmlns="http://www.w3.org/2000/svg">
<path d="M20.9239 10.4953C20.8784 15.3319 17.3418 19.527 12.6017 20.3161C10.2515 20.7078 8.04327 20.3161 5.95989 19.1637C5.87474 19.1183 5.74417 19.1069 5.65334 19.141C4.48961 19.5554 3.32587 19.9868 2.16213 20.4012C1.57175 20.6113 0.992716 20.2593 0.935948 19.6462C0.918918 19.4873 0.964332 19.3056 1.0211 19.1523C1.42415 18.0227 1.83855 16.893 2.25296 15.7633C2.29837 15.6328 2.30405 15.5362 2.23025 15.4114C-0.920356 9.84812 1.87262 2.84299 7.98082 0.958299C13.5895 -0.773116 19.5444 2.76919 20.6684 8.51976C20.799 9.17259 20.8444 9.83677 20.9239 10.4953Z" fill="#828282"/>
</svg>
