<svg width="19" height="21" viewBox="0 0 19 21" fill="none" xmlns="http://www.w3.org/2000/svg">
<path d="M14.7788 21.0026C14.46 20.9105 14.1297 20.8505 13.8263 20.7145C12.3977 20.0743 11.6219 18.5339 11.9099 16.9255C11.933 16.7974 11.8984 16.7494 11.8062 16.6934C9.90137 15.5651 7.99649 14.4368 6.09161 13.3005C5.97255 13.2285 5.89959 13.2365 5.79589 13.3325C4.79737 14.2448 3.37639 14.4288 2.19352 13.8126C1.00297 13.1925 0.265597 11.8801 0.384652 10.5078C0.503707 9.1354 1.18347 8.13513 2.40475 7.61099C3.62602 7.08685 4.77432 7.30291 5.79589 8.18314C5.88038 8.25516 5.93799 8.31118 6.05705 8.23916C8.00801 7.07484 9.96282 5.91453 11.9023 4.76223C11.8831 4.41813 11.8447 4.09005 11.8562 3.75796C11.9023 2.16553 13.1159 0.773158 14.629 0.557101C14.6789 0.549098 14.725 0.533094 14.7749 0.51709C15.0054 0.51709 15.2358 0.51709 15.4662 0.51709C15.5008 0.529093 15.5392 0.545097 15.5738 0.553099C16.9755 0.765156 18.1046 1.88546 18.3427 3.30183C18.5924 4.78623 17.9241 6.23462 16.6645 6.94281C15.4125 7.643 13.8801 7.41894 12.847 6.38666C12.8009 6.34265 12.7548 6.29864 12.7049 6.25062C10.7271 7.42694 8.7569 8.59525 6.7829 9.76756C6.97108 10.4397 6.9634 11.0999 6.78674 11.7561C8.76843 12.9324 10.7386 14.1007 12.7395 15.289C12.7856 15.225 12.8163 15.165 12.8624 15.121C13.6382 14.3728 14.5522 14.0607 15.5968 14.2128C17.0946 14.4288 18.3043 15.7772 18.385 17.3016C18.4772 19.018 17.494 20.4704 15.9501 20.8905C15.7888 20.9346 15.6275 20.9666 15.4662 21.0066C15.2396 21.0026 15.0092 21.0026 14.7788 21.0026Z" fill="#828282"/>
</svg>
